<svg version="1.0" xmlns="http://www.w3.org/2000/svg" width="682.667" height="682.667" viewBox="0 0 512 512"><path d="M125.5.7c-36 2.8-71 9.2-89.3 16.3-10.7 4.1-15.1 8.5-19.2 19.1C11.3 51 5.9 76.4 2.4 106c-2.1 17.4-3 61.8-1.5 75 5 43.3 27 80.6 63.6 107.9 10.7 8 24.3 15.3 42.3 22.6 27.6 11.3 43.3 21.4 59.4 38.4 15.3 16 24.2 30.4 34.3 55.6 11.5 28.5 23 46.2 41.6 63.9 21.3 20.2 46 33.2 76.2 39.8 9.4 2.1 12.6 2.3 42.2 2.2 27 0 34.6-.3 48.6-2.2 32-4.2 59.3-10.7 72.1-17 7.3-3.7 7.3-3.7 11.5-12.2 10.3-20.7 18-66.6 19-113.5.6-28.8-.3-40.9-4.2-56.6-6.8-27.2-19.6-49.1-41.4-70.9-18.4-18.4-32-27.1-59.1-38-27.7-11.1-42.1-20-58.5-36.5-16.6-16.5-26.2-31.7-37-58.3-10.7-26.2-19.4-40.4-35.3-57.3C251.4 22.6 220 6.2 185 1.5 175.5.2 137.9-.3 125.5.7zm54.1 22.8c23.8 3.2 43.1 10.8 61.9 24.7 21.9 16.2 36.8 36.5 49.1 67 7.9 19.6 12.5 28.6 20.8 40.8 20.6 30.3 49.2 51.9 87.1 66 26.5 9.9 48.6 26.1 65.1 47.9 7.9 10.5 17.5 29.5 21 41.6 7.8 27.4 7.1 70.9-1.8 120.2-1.2 6.7-2.5 12-2.9 11.7-1.5-.9-4.1-15.4-7-38.4-5.6-45.4-8.3-58-16.3-75.9-14.3-32.3-41.3-60.6-73.5-77-5.3-2.6-15.7-7.2-23.1-10.2-16.1-6.3-26.4-11.9-38.5-20.9-23.3-17.3-39.2-38.8-52-70.4-7.2-18-12.3-28-19.6-38.7-23.4-34.1-57.9-57.7-96.5-65.8-5.5-1.2-24.1-4.4-41.4-7.1-17.3-2.8-34.4-5.6-38-6.2l-6.5-1.2 6.5-1.3c14.6-3 35.7-5.8 58.5-7.6 11.6-1 37.3-.5 47.1.8zM54 51.8c5.2 1.2 19.6 3.7 32 5.7 43.1 6.8 59.6 9.6 67.4 11.6 22.8 5.8 44.8 18.7 62.4 36.8 13.9 14.3 22.8 28.7 32.3 52.2 8.5 21 11.1 26.1 19.8 39 12.9 19.2 27.8 34.1 46.1 46.4 13.1 8.8 22.1 13.4 38.9 19.9 7.9 3.1 16.9 7 20 8.6 24.8 12.5 48.1 35.9 60.5 60.7 9.2 18.6 11.8 29.8 17.1 74.6 2.9 24.2 6.1 39.4 11.6 55.6 2.1 6.3 3.8 11.6 3.6 11.7-.7.7-20.1 5.6-29.7 7.4-43.1 8.4-89 10.4-114.5 4.9-20.9-4.5-42.2-15.3-59.5-30.2-18.1-15.6-30.9-34.9-41.6-62.5-13.5-34.9-33.8-61.3-62.9-81.7-12.5-8.7-23.4-14.4-41.5-21.5-8.5-3.4-18.6-7.9-22.5-10-33.5-18.5-58.7-50.7-67.3-86-6.5-26.8-5.4-68.6 2.9-115.5 1.9-10.8 6.5-30 7.4-31.6.3-.4 2.2-.2 4.3.5 2 .7 8 2.3 13.2 3.4z"/><path d="M155.5 107.4c-7.9 3.5-8.7 15.7-1.3 19.3 1.2.6 5.8 2.8 10.1 4.8 13.7 6.4 21.3 15 28.3 32.3 2.2 5.3 6.1 7.6 11.6 6.9 7.5-1 10.9-6.7 8.9-15.1-4.6-18.4-18-34-37.6-43.6-11.4-5.6-15.7-6.6-20-4.6zM46.1 130.6c-4 3.3-4.8 7.8-2.6 14.3 4.1 12.5 18.5 24.7 30.4 25.9 5.7.5 9.5-2.1 11.2-7.8 1.7-5.7-1-10.6-7.8-14-6.9-3.4-10.1-6.5-12.9-12.7-1.3-2.8-3.3-5.8-4.6-6.7-3.6-2.5-10.1-2.1-13.7 1zm84.8 64.3c-3.6 3.6-3.9 9-.9 17.6 5.8 16.8 18.5 30.1 37.6 39.2 11.5 5.5 17 5.8 21.5 1.4 2.4-2.4 2.9-3.8 2.9-7.7 0-4.1-.5-5.1-3.6-8-1.9-1.9-4.1-3.4-4.7-3.4-2.4 0-12.4-5.3-17.5-9.2-6.7-5.2-12.3-13-15.7-21.9-3.2-8.4-6.1-10.9-12.2-10.9-3.6 0-5 .6-7.4 2.9zm129.4 84c-9.3 5.8-2.8 26.7 13.1 42.6 11.5 11.3 26.9 19.8 36.4 19.9 3.7.1 4.8-.4 7.3-3.2 2.3-2.5 2.9-4.2 2.9-7.6 0-5.8-2.6-8.9-9.8-11.6-15.8-5.9-27.8-17.6-31.8-30.9-2.1-7.3-5-10.2-10.4-10.8-3.4-.3-5.3.1-7.7 1.6zm130.1 84c-3.7 1.6-6.4 6-6.4 10.5 0 5.5 2.2 8.3 8.4 11.1 6.1 2.8 10.5 7.1 12.7 12.8 3 7.6 10.5 10.6 16.7 6.7 6-3.8 6.6-11.7 1.5-21.1-6.6-12.3-24.9-23.4-32.9-20zM282.3 385c-2.7 1.1-5.3 5.9-5.3 9.7 0 10 9.4 26.5 20.5 36.4 10 9 25.7 16.9 33.4 16.9 12.3 0 14.8-16.3 3.2-21.2-12-5.1-16-7.7-22.9-14.4-7-7-8.6-9.6-12.6-20.7-2.5-6.8-9.2-9.5-16.3-6.7z"/></svg>